<?xml version="1.0" encoding="UTF-8"?>
<!DOCTYPE svg PUBLIC "-//W3C//DTD SVG 1.1//EN" "http://www.w3.org/Graphics/SVG/1.1/DTD/svg11.dtd">
<svg xmlns="http://www.w3.org/2000/svg" version="1.1" width="35px" height="35px" style="shape-rendering:geometricPrecision; text-rendering:geometricPrecision; image-rendering:optimizeQuality; fill-rule:evenodd; clip-rule:evenodd" xmlns:xlink="http://www.w3.org/1999/xlink">
<g><path style="opacity:1" fill="#f10000" d="M 19.5,4.5 C 17.8828,5.038 16.2161,5.37133 14.5,5.5C 14.5,6.5 14.5,7.5 14.5,8.5C 16.8194,9.16697 19.1527,9.33364 21.5,9C 22.0848,7.69762 22.7515,6.53095 23.5,5.5C 24.1667,4.83333 24.8333,4.16667 25.5,3.5C 27.0222,4.19095 28.0222,5.35762 28.5,7C 26.6416,8.7547 24.6416,10.2547 22.5,11.5C 20.5,11.5 18.5,11.5 16.5,11.5C 15.4324,10.5655 14.099,10.2322 12.5,10.5C 11.8333,8.83333 11.1667,7.16667 10.5,5.5C 10.0825,4.77842 9.4158,4.27842 8.5,4C 12.3575,3.19007 16.0242,3.35673 19.5,4.5 Z"/></g>
<g><path style="opacity:1" fill="#df110c" d="M 7.5,2.5 C 13.5,2.5 19.5,2.5 25.5,2.5C 25.5,2.83333 25.5,3.16667 25.5,3.5C 24.8333,4.16667 24.1667,4.83333 23.5,5.5C 22.4324,4.56552 21.099,4.23219 19.5,4.5C 16.0242,3.35673 12.3575,3.19007 8.5,4C 9.4158,4.27842 10.0825,4.77842 10.5,5.5C 9.76109,5.36899 9.09442,5.53566 8.5,6C 9.32807,7.99227 10.6614,9.49227 12.5,10.5C 14.099,10.2322 15.4324,10.5655 16.5,11.5C 11.6561,12.3498 8.32279,15.0165 6.5,19.5C 6.5,19.1667 6.5,18.8333 6.5,18.5C 4.0688,16.9318 4.0688,15.4318 6.5,14C 4.96984,9.94829 5.30317,6.11496 7.5,2.5 Z"/></g>
<g><path style="opacity:1" fill="#341a04" d="M 19.5,4.5 C 21.099,4.23219 22.4324,4.56552 23.5,5.5C 22.7515,6.53095 22.0848,7.69762 21.5,9C 19.1527,9.33364 16.8194,9.16697 14.5,8.5C 14.5,7.5 14.5,6.5 14.5,5.5C 16.2161,5.37133 17.8828,5.038 19.5,4.5 Z"/></g>
<g><path style="opacity:1" fill="#c0c110" d="M 19.5,5.5 C 21.3786,5.39318 21.7119,5.89318 20.5,7C 17.1247,7.63161 16.7913,7.13161 19.5,5.5 Z"/></g>
<g><path style="opacity:1" fill="#3d0901" d="M 10.5,5.5 C 11.1667,7.16667 11.8333,8.83333 12.5,10.5C 10.6614,9.49227 9.32807,7.99227 8.5,6C 9.09442,5.53566 9.76109,5.36899 10.5,5.5 Z"/></g>
<g><path style="opacity:1" fill="#30160d" d="M 25.5,3.5 C 25.5,3.16667 25.5,2.83333 25.5,2.5C 27.7144,2.29071 29.381,3.12404 30.5,5C 31.3223,7.43391 31.6556,9.93391 31.5,12.5C 30.4693,11.645 29.3026,10.9783 28,10.5C 26.5936,11.4138 25.0936,12.0805 23.5,12.5C 23.5,11.8333 23.1667,11.5 22.5,11.5C 24.6416,10.2547 26.6416,8.7547 28.5,7C 28.0222,5.35762 27.0222,4.19095 25.5,3.5 Z"/></g>
<g><path style="opacity:1" fill="#d8d810" d="M 31.5,12.5 C 31.5,13.1667 31.5,13.8333 31.5,14.5C 30.5,15.1667 29.5,15.8333 28.5,16.5C 28.1667,16.5 27.8333,16.5 27.5,16.5C 26.0813,17.4511 24.4147,17.7845 22.5,17.5C 21.3064,16.2227 19.6397,15.5561 17.5,15.5C 15.8333,15.6667 14.1667,15.8333 12.5,16C 11.944,16.3826 11.6107,16.8826 11.5,17.5C 11.1667,17.5 10.8333,17.5 10.5,17.5C 11.0312,15.4559 12.1978,13.7893 14,12.5C 17.2688,13.8184 20.4355,13.8184 23.5,12.5C 25.0936,12.0805 26.5936,11.4138 28,10.5C 29.3026,10.9783 30.4693,11.645 31.5,12.5 Z"/></g>
<g><path style="opacity:1" fill="#343c31" d="M 27.5,16.5 C 26.0222,16.762 24.6888,16.4287 23.5,15.5C 24.7682,13.953 26.4348,12.953 28.5,12.5C 28.8333,12.8333 29.1667,13.1667 29.5,13.5C 28.8075,14.5178 28.1408,15.5178 27.5,16.5 Z"/></g>
<g><path style="opacity:0.996" fill="#4c2a26" d="M 7.5,2.5 C 5.30317,6.11496 4.96984,9.94829 6.5,14C 4.0688,15.4318 4.0688,16.9318 6.5,18.5C 6.16667,18.5 5.83333,18.5 5.5,18.5C 4.83333,18.1667 4.16667,17.8333 3.5,17.5C 3.33449,13.4862 3.50115,9.48617 4,5.5C 4.42244,3.5743 5.5891,2.5743 7.5,2.5 Z"/></g>
<g><path style="opacity:1" fill="#2d1a06" d="M 16.5,11.5 C 18.5,11.5 20.5,11.5 22.5,11.5C 23.1667,11.5 23.5,11.8333 23.5,12.5C 20.4355,13.8184 17.2688,13.8184 14,12.5C 12.1978,13.7893 11.0312,15.4559 10.5,17.5C 10.5,17.8333 10.5,18.1667 10.5,18.5C 9.85706,20.0764 8.85706,21.4097 7.5,22.5C 6.89022,21.609 6.55688,20.609 6.5,19.5C 8.32279,15.0165 11.6561,12.3498 16.5,11.5 Z"/></g>
<g><path style="opacity:1" fill="#495b3c" d="M 22.5,17.5 C 20.2677,18.8689 17.9344,19.8689 15.5,20.5C 14.596,19.791 14.2627,18.791 14.5,17.5C 13.5,17.5 12.5,17.5 11.5,17.5C 11.6107,16.8826 11.944,16.3826 12.5,16C 14.1667,15.8333 15.8333,15.6667 17.5,15.5C 19.6397,15.5561 21.3064,16.2227 22.5,17.5 Z"/></g>
<g><path style="opacity:1" fill="#dddd34" d="M 3.5,17.5 C 4.16667,17.8333 4.83333,18.1667 5.5,18.5C 5.71481,20.1788 5.04814,21.1788 3.5,21.5C 3.5,20.1667 3.5,18.8333 3.5,17.5 Z"/></g>
<g><path style="opacity:1" fill="#372812" d="M 10.5,17.5 C 10.8333,17.5 11.1667,17.5 11.5,17.5C 12.5,17.5 13.5,17.5 14.5,17.5C 14.2627,18.791 14.596,19.791 15.5,20.5C 16.4098,22.0188 17.2432,23.6854 18,25.5C 19.3561,24.6198 20.8561,24.2865 22.5,24.5C 21.4489,25.2223 20.7822,26.2223 20.5,27.5C 20.5,28.1667 20.8333,28.5 21.5,28.5C 20.1667,29.1667 18.8333,29.8333 17.5,30.5C 16.8333,30.5 16.1667,30.5 15.5,30.5C 16.4593,25.1658 14.7927,21.1658 10.5,18.5C 10.5,18.1667 10.5,17.8333 10.5,17.5 Z"/></g>
<g><path style="opacity:1" fill="#a31d18" d="M 31.5,14.5 C 31.5,15.8333 31.5,17.1667 31.5,18.5C 30.71,19.6085 30.21,20.9419 30,22.5C 29.5899,21.0993 29.0899,19.766 28.5,18.5C 28.5,17.8333 28.5,17.1667 28.5,16.5C 29.5,15.8333 30.5,15.1667 31.5,14.5 Z"/></g>
<g><path style="opacity:1" fill="#e90301" d="M 10.5,18.5 C 14.7927,21.1658 16.4593,25.1658 15.5,30.5C 15.1667,30.5 14.8333,30.5 14.5,30.5C 13.8466,29.1932 13.1799,27.8599 12.5,26.5C 10.5808,25.3875 8.91417,24.0542 7.5,22.5C 8.85706,21.4097 9.85706,20.0764 10.5,18.5 Z"/></g>
<g><path style="opacity:1" fill="#e6e610" d="M 27.5,16.5 C 27.8333,16.5 28.1667,16.5 28.5,16.5C 28.5,17.1667 28.5,17.8333 28.5,18.5C 27.5489,19.9187 27.2155,21.5853 27.5,23.5C 25.5853,23.2155 23.9187,23.5489 22.5,24.5C 20.8561,24.2865 19.3561,24.6198 18,25.5C 17.2432,23.6854 16.4098,22.0188 15.5,20.5C 17.9344,19.8689 20.2677,18.8689 22.5,17.5C 24.4147,17.7845 26.0813,17.4511 27.5,16.5 Z"/></g>
<g><path style="opacity:1" fill="#1e1b05" d="M 23.5,19.5 C 25.337,19.6395 25.6704,20.3061 24.5,21.5C 23.7025,21.0431 23.3691,20.3764 23.5,19.5 Z"/></g>
<g><path style="opacity:1" fill="#33330b" d="M 19.5,20.5 C 20.675,20.281 21.675,20.6143 22.5,21.5C 20.9483,22.7979 19.9483,22.4646 19.5,20.5 Z"/></g>
<g><path style="opacity:1" fill="#b7b8b8" d="M 22.5,24.5 C 24.1992,24.3398 25.8659,24.5065 27.5,25C 25.0529,24.9482 22.7196,25.7816 20.5,27.5C 20.7822,26.2223 21.4489,25.2223 22.5,24.5 Z"/></g>
<g><path style="opacity:1" fill="#d7150f" d="M 6.5,30.5 C 4.82124,30.7148 3.82124,30.0481 3.5,28.5C 5.21343,26.805 7.21343,25.9717 9.5,26C 9.95735,26.414 10.2907,26.914 10.5,27.5C 9.0986,28.5207 7.76527,29.5207 6.5,30.5 Z"/></g>
<g><path style="opacity:1" fill="#2d1c16" d="M 28.5,18.5 C 29.0899,19.766 29.5899,21.0993 30,22.5C 30.21,20.9419 30.71,19.6085 31.5,18.5C 31.5,22.5 31.5,26.5 31.5,30.5C 29.1667,30.5 26.8333,30.5 24.5,30.5C 25.531,29.7515 26.6976,29.0848 28,28.5C 28.6667,27.8333 28.6667,27.1667 28,26.5C 25.9129,27.3972 23.7463,28.0639 21.5,28.5C 20.8333,28.5 20.5,28.1667 20.5,27.5C 22.7196,25.7816 25.0529,24.9482 27.5,25C 25.8659,24.5065 24.1992,24.3398 22.5,24.5C 23.9187,23.5489 25.5853,23.2155 27.5,23.5C 27.2155,21.5853 27.5489,19.9187 28.5,18.5 Z"/></g>
<g><path style="opacity:1" fill="#2d1715" d="M 5.5,18.5 C 5.83333,18.5 6.16667,18.5 6.5,18.5C 6.5,18.8333 6.5,19.1667 6.5,19.5C 6.55688,20.609 6.89022,21.609 7.5,22.5C 8.91417,24.0542 10.5808,25.3875 12.5,26.5C 13.1799,27.8599 13.8466,29.1932 14.5,30.5C 11.8333,30.5 9.16667,30.5 6.5,30.5C 7.76527,29.5207 9.0986,28.5207 10.5,27.5C 10.2907,26.914 9.95735,26.414 9.5,26C 7.21343,25.9717 5.21343,26.805 3.5,28.5C 4.83333,26.1667 4.83333,23.8333 3.5,21.5C 5.04814,21.1788 5.71481,20.1788 5.5,18.5 Z"/></g>
<g><path style="opacity:1" fill="#b6b81e" d="M 24.5,30.5 C 22.1667,30.5 19.8333,30.5 17.5,30.5C 18.8333,29.8333 20.1667,29.1667 21.5,28.5C 23.7463,28.0639 25.9129,27.3972 28,26.5C 28.6667,27.1667 28.6667,27.8333 28,28.5C 26.6976,29.0848 25.531,29.7515 24.5,30.5 Z"/></g>
</svg>
